PathFileType	4	(X/Y/Z)	C:/Users/opensim2020/Desktop/walking_exp_matlab/subject03_walking06_straight_03.trc																																																																																																																																		
DataRate	CameraRate	NumFrames	NumMarkers	Units	OrigDataRate	OrigDataStartFrame	OrigNumFrames																																																																																																																														
100	100	4	44	mm	100	2100	280																																																																																																																														
Frame#	Time	LFHD			RFHD			LBHD			RBHD			C7			T10			CLAV			STRN			RBAK			LSHO			LUPA			LELB			LFRM			LWRA			LWRB			LFIN			RSHO			RUPA			RELB			RFRM			RWRA			RWRB			RFIN			LASI			RASI			LPSI			RPSI			LTHI			LKNE			LTIB			LANK			LHEE			LTOE			RTHI			RKNE			RTIB			RANK			RHEE			RTOE			*39			*40			*41			*42			*43		
		X1	Y1	Z1	X2	Y2	Z2	X3	Y3	Z3	X4	Y4	Z4	X5	Y5	Z5	X6	Y6	Z6	X7	Y7	Z7	X8	Y8	Z8	X9	Y9	Z9	X10	Y10	Z10	X11	Y11	Z11	X12	Y12	Z12	X13	Y13	Z13	X14	Y14	Z14	X15	Y15	Z15	X16	Y16	Z16	X17	Y17	Z17	X18	Y18	Z18	X19	Y19	Z19	X20	Y20	Z20	X21	Y21	Z21	X22	Y22	Z22	X23	Y23	Z23	X24	Y24	Z24	X25	Y25	Z25	X26	Y26	Z26	X27	Y27	Z27	X28	Y28	Z28	X29	Y29	Z29	X30	Y30	Z30	X31	Y31	Z31	X32	Y32	Z32	X33	Y33	Z33	X34	Y34	Z34	X35	Y35	Z35	X36	Y36	Z36	X37	Y37	Z37	X38	Y38	Z38	X39	Y39	Z39	X40	Y40	Z40	X41	Y41	Z41	X42	Y42	Z42	X43	Y43	Z43	X44	Y44	Z44
																																																																																																																																					
106	1.05	-235.41585	1622.12488	1394.98035	-239.80522	1622.62097	1528.59705	-360.44275	1570.10144	1394.98657	-360.28769	1570.94067	1526.34705	-388.86182	1419.25623	1452.6283	-436.79703	1108.02698	1449.02283	-270.95981	1335.93677	1450.37537	-236.40311	1169.54846	1446.57898	-446.8623	1249.35962	1552.71204	-318.88116	1376.04297	1295.26257	-359.6506	1181.04688	1226.38318	-371.52921	1058.12048	1214.03931	-357.75208	928.3454	1213.99805	-348.63034	808.91089	1245.78125	-374.28815	816.27991	1195.85779	-365.58743	731.99213	1206.62158	-308.37943	1363.31042	1609.85046	-273.70145	1149.7041	1690.7627	-231.38205	1046.08496	1705.34399	-173.62231	922.03253	1703.43481	-118.87227	841.66364	1662.14587	-142.16136	826.93048	1708.44336	-96.18802	769.9118	1696.30725	-266.94531	937.26984	1338.97424	-278.88058	941.38129	1576.05164	-430.9537	958.36768	1378.66052	-436.38785	975.73682	1527.30261	-250.03767	641.00476	1285.27295	-181.64107	478.02298	1325.94629	-196.50542	283.7955	1326.15186	-175.57285	74.52457	1364.57581	-211.15013	36.20601	1404.73694	-27.07187	55.47807	1387.20825	-368.9584	651.33643	1606.96924	-383.30392	472.36395	1568.59766	-460.81314	295.82803	1564.30066	-519.10297	87.54851	1507.22339	-564.54565	62.6421	1454.13684	-380.27121	36.92506	1493.29248	-322.13403	1678.22119	1445.78967	NaN	NaN	NaN	NaN	NaN	NaN	NaN	NaN	NaN	NaN	NaN	NaN
107	1.06	-226.48227	1620.77063	1393.86426	-230.64769	1621.45435	1528.1405	-351.27249	1568.68738	1394.625	-351.00766	1569.70093	1525.92664	-379.45081	1417.94849	1452.32373	-427.38742	1106.77954	1448.18848	-261.63507	1334.63306	1450.14856	-227.07677	1168.17761	1446.41406	-437.5134	1247.99036	1552.047	-309.43216	1374.74207	1294.96948	-351.43213	1179.85083	1226.35645	-363.71603	1057.00659	1214.09717	-350.73056	927.08417	1214.10706	-341.72961	807.85028	1245.85339	-367.80246	815.10492	1196.21753	-359.45627	730.80103	1207.00793	-299.15234	1361.91565	1609.53784	-264.2514	1148.52209	1690.65649	-221.71054	1045.15454	1705.26343	-162.52377	921.85638	1702.67041	-106.79705	842.50183	1660.7666	-129.89832	827.14154	1707.00525	-83.08949	770.91644	1694.48181	-257.38904	935.50049	1338.99854	-270.27969	940.18854	1576.06787	-421.77011	957.17975	1378.03284	-427.56683	974.75983	1526.59656	-242.91135	638.51062	1285.82361	-173.76344	476.12024	1327.84094	-180.90176	282.44135	1327.30078	-149.90202	74.07249	1364.25916	-183.9705	34.76482	1404.1333	-0.19301	59.73881	1388.40295	-362.18765	650.59412	1607.12341	-377.74841	471.63995	1568.79651	-457.34155	295.85568	1564.46606	-518.43457	88.4431	1507.28821	-564.28558	63.91112	1454.30627	-380.14685	36.8936	1493.31104	-313.40134	1677.11865	1445.53149	NaN	NaN	NaN	NaN	NaN	NaN	NaN	NaN	NaN	NaN	NaN	NaN
108	1.07	-217.30788	1619.57568	1393.35425	-221.59055	1620.34277	1527.59216	-342.13495	1567.24963	1394.2312	-341.82028	1568.35327	1525.55737	-370.02441	1416.62561	1451.96692	-418.026	1105.45544	1447.37598	-252.11859	1333.29126	1449.89368	-217.53818	1166.87598	1446.2196	-428.36386	1246.62598	1551.42346	-299.88425	1373.37878	1294.56079	-342.80054	1178.54358	1226.34167	-355.94189	1055.68518	1214.17969	-343.28381	925.79968	1214.23132	-334.88745	806.41461	1246.04919	-361.0513	813.84344	1196.48218	-353.09711	729.48047	1207.36292	-289.8945	1360.47351	1609.25635	-254.77614	1147.27356	1690.52441	-212.08444	1044.09253	1705.15588	-151.64337	921.46533	1701.85205	-95.16785	843.04254	1659.30383	-117.91978	827.16406	1705.505	-70.30199	771.64008	1692.53577	-247.74728	933.62531	1338.91174	-261.57916	938.85858	1576.07361	-412.1712	955.95929	1377.31262	-418.63828	973.55371	1525.86536	-235.66084	635.97162	1286.13867	-166.12581	474.15097	1329.92542	-165.88261	281.50668	1328.34241	-125.54366	73.94457	1363.87427	-158.0799	33.69796	1403.62158	25.02271	64.82566	1389.15576	-355.33353	649.81836	1607.0968	-372.19553	470.92157	1569.03845	-453.84064	296.02017	1564.422	-517.74554	89.39314	1507.34741	-563.97443	65.36862	1454.38281	-379.96826	36.82511	1493.32153	-304.38248	1675.78516	1444.96924	NaN	NaN	NaN	NaN	NaN	NaN	NaN	NaN	NaN	NaN	NaN	NaN
109	1.08	-208.03859	1618.38	1393.35608	-212.51624	1619.2561	1526.94873	-332.90677	1565.72449	1393.7771	-332.50394	1566.9967	1525.09448	-360.55255	1415.25073	1451.61975	-408.44107	1104.16016	1446.53345	-242.60493	1331.93665	1449.55957	-207.91658	1165.48669	1445.96973	-418.90594	1245.0575	1550.67578	-290.25275	1372.01807	1294.09998	-333.85141	1177.18054	1226.22949	-347.56372	1054.39233	1214.25696	-335.52322	924.41235	1214.31653	-327.59506	804.89349	1246.18127	-354.0076	812.48254	1196.80481	-346.53812	728.08362	1207.68152	-280.58923	1358.98279	1608.91919	-245.30365	1145.92664	1690.24927	-202.5464	1042.83948	1704.88464	-141.01686	920.88873	1700.94043	-83.87025	843.26544	1657.79395	-106.29078	826.89001	1703.98804	-58.00924	772.18414	1690.70422	-237.84732	931.9361	1338.89844	-252.71045	937.45081	1576.03162	-402.25925	954.51508	1376.505	-409.48819	972.40753	1525.06287	-227.9565	633.36823	1286.10815	-158.18697	472.13358	1331.95898	-151.29141	280.88403	1329.31006	-102.83051	75.06853	1363.70911	-133.62744	32.99507	1403.13159	48.55695	70.36091	1389.30591	-348.46146	649.0849	1607.14685	-366.5119	470.2366	1569.24414	-450.1355	296.12643	1564.48083	-517.00983	90.42016	1507.35181	-563.57739	66.94022	1454.37817	-379.82019	36.79049	1493.33899	NaN	NaN	NaN	NaN	NaN	NaN	NaN	NaN	NaN	NaN	NaN	NaN	NaN	NaN	NaN
